<svg version="1" xmlns="http://www.w3.org/2000/svg" width="933.333" height="933.333" viewBox="0 0 700.000000 700.000000"><path d="M332.9 197.5c-.2.1-4 .6-8.4 1-4.4.3-9.1.8-10.5 1-3.1.5-9.7 1.4-14.1 2-1.9.3-4.5.7-5.9 1-1.4.2-5 1-8 1.6-16.4 3.3-51.3 13.4-54.5 15.9-.5.4-2.3 1-3.9 1.4-3.6.9-19.6 8.3-19.6 9.1 0 .5 16.3 28.7 21.1 36.5 5.4 9 23.9 41.4 23.9 42.1 0 .5.5.9 1 .9 1.7 0 1.1 2-.7 2.7-4.6 1.7-19.6 11.3-30.1 19.3-21.9 16.5-37.6 34.1-50.4 56.2-2.9 5.1-5.3 9.5-5.4 9.8 0 .3-1.6 3.9-3.6 8s-4.4 10.1-5.4 13.2c-1 3.2-2.3 5.8-2.9 5.8-.7 0-11.7-2.7-24.6-6.1-12.9-3.3-24.1-6.2-24.9-6.4-.8-.2-4.2-1.1-7.5-2-3.3-.9-6.7-1.8-7.5-2-.8-.2-8.5-2.2-17-4.4s-15.6-3.8-15.8-3.6c-.6.6-5.2 17.9-6.2 23.5-.6 3-1.2 6.6-1.5 8-1.2 6.4-1.4 7.9-2.1 13.5-.9 8.9-1.2 13.2-1.5 21.3l-.1 7.2H23.4c-22.1 0-23.4.1-23.4 1.9 0 1.8 4.9 1.8 160.3 1.9 88.1 0 160.7.1 161.3.1.5.1 1.6 2.4 2.3 5.1 1.7 6.7 7.5 13.9 13.7 17 6.4 3.3 17.8 3.5 23.9.5 6.8-3.3 12.2-9.6 14.2-16.4 1.1-3.9 2.4-6.1 3.3-6.2.8 0 73.4-.1 161.3-.1 155.2-.1 159.7-.1 159.7-1.9 0-1.8-1.2-1.9-23.5-1.9-18.1 0-23.5-.3-23.6-1.3 0-.6-.2-4.4-.3-8.2-.3-6.9-1.3-16.5-2.1-21.5-.3-1.4-.7-4.7-1.1-7.5-.3-2.7-1-6-1.5-7.3-.5-1.2-.8-2.6-.7-3 .1-.4-.1-2.1-.5-3.7-.4-1.7-.9-3.9-1.1-5-.2-1.1-.9-3.1-1.4-4.5-.5-1.4-1-3-1.1-3.5-.7-4.3-6-20.5-7.4-22.3-.5-.6-.7-1.2-.4-1.2.4 0-.3-2-1.3-4.5-1.1-2.5-2.9-6.5-4-9s-2-4.9-2-5.3c-.1-.4-1.1-2.5-2.4-4.7-1.3-2.2-4-7.2-6-11-4.1-7.7-5.8-10.7-6.6-11.5-.3-.3-1.6-2.3-2.9-4.5-2.5-4.3-15.4-22.1-19.5-27-21.9-25.6-45.4-45.8-74.1-63.7-12.1-7.5-35.5-19.2-47-23.5-2.2-.8-6-2.3-8.5-3.3-9.1-3.7-36.5-11.6-43.3-12.5-1.9-.3-4.5-.9-5.8-1.4-1.3-.5-2.7-.9-3.2-.9-1-.1-12.1-1.6-12.7-1.7-.8-.2-11.6-1.7-15.7-2.1-4.9-.6-47-1.4-47.4-.9zm131.6 126.9c2.2 1.4 4.8 3.2 5.8 3.9 1.1.6 5 3.6 8.9 6.6l7 5.4-26.8 26.8c-14.8 14.8-27.2 26.9-27.7 26.9-.4 0-3.1-1.8-5.9-4.1-2.9-2.2-8.5-5.9-12.5-8.1-4-2.2-7.3-4.5-7.2-5.1 0-.7.9-2.6 2-4.2 1.1-1.7 2.5-4.2 3.1-5.8.7-1.5 1.6-2.7 2-2.7.4 0 .8-.4.8-1 0-.5 2-4.2 4.3-8.2 2.4-4 9-15.2 14.6-25l10.1-17.6 8.8 4.7c4.8 2.7 10.5 6 12.7 7.5zM260 320.2c1.9 3.5 3.9 7.1 4.5 8 .5.9 1.7 2.9 2.6 4.5 4.4 7.8 6.3 11 8 13.5 1.1 1.4 1.9 2.8 1.9 3.1 0 .3 2.7 5.1 6 10.6 3.3 5.6 6 10.6 6 11.1 0 .6.3 1 .8 1 .7 0 3.2 4.7 3.2 6.2 0 .4-.4.8-1 .8-1.2 0-14.1 7.9-19.8 12.2l-4.3 3.2-25.2-25c-13.9-13.7-25.8-25.7-26.5-26.7-1.6-2.2-1.7-2.1 10.8-11.4 9.3-6.9 26.4-17.3 28.5-17.3.6 0 2.6 2.8 4.5 6.2zm112.7 48.9c20.6 3.9 39.7 12.4 55.3 24.8l2.5 2-22.9 22.9-22.9 23 4 4.3c6.6 7.4 10.7 15.9 11.6 24.3l.4 3.6h-23.5l-.7-3.7c-1.4-7.7-6.6-14.4-14.4-18.7-4.9-2.7-15.8-3.3-21.3-1.1-8.9 3.5-15.9 11.5-17.3 19.6l-.7 3.9H311c-11.6 0-11.7 0-11.4-2.3.9-7.5 1.3-8.8 5.4-16.6 2.6-5.1 3.1-5.8 8-10.8 8.2-8.3 20.1-13.8 32.5-14.8 1.7-.2 3.3-.3 3.8-.4.4-.1.7-5.1.7-11.2v-11.1l-7.2.6c-13.1 1-26.7 6-38.1 13.7l-6 4.1-14.3-14.3c-7.9-7.9-14.4-14.7-14.4-15 0-1 9.3-7.6 16.6-12 7-4.1 18.5-9.1 27.9-12 16-4.9 40.6-6.1 58.2-2.8z"/><path d="M180.5 211.2c-19.6 10.7-37.9 22.5-51.2 33.1l-6.1 4.9 33.9 33.9c18.7 18.6 34.1 33.9 34.2 33.9.2 0 4.7-3.3 10-7.4 5.4-4 14.7-10.1 20.7-13.5 6.1-3.5 11-6.9 11-7.7 0-.8-.4-1.4-.9-1.4s-1.1-.8-1.4-1.8c-.4-.9-1.8-3.7-3.3-6.2-1.5-2.5-3.5-5.9-4.4-7.5-3.1-5.5-11-19-12-20.5-.5-.8-2.1-3.8-3.6-6.5-1.4-2.8-3.5-6.2-4.5-7.7-1.1-1.4-1.9-3.1-1.9-3.7 0-.6-.4-1.1-1-1.1-.5 0-1-.4-1-.9 0-1.8-12.3-22.1-13.4-22.1-.6 0-2.9 1-5.1 2.2z"/></svg>