<?xml version="1.0" encoding="UTF-8" standalone="no"?>
<svg
   xmlns:dc="http://purl.org/dc/elements/1.1/"
   xmlns:cc="http://creativecommons.org/ns#"
   xmlns:rdf="http://www.w3.org/1999/02/22-rdf-syntax-ns#"
   xmlns:svg="http://www.w3.org/2000/svg"
   xmlns="http://www.w3.org/2000/svg"
   viewBox="0 0 3000 1316.6285"
   height="1316.6285"
   width="3000"
   id="svg6386"
   version="1.1">
  <metadata
     id="metadata6392">
    <rdf:RDF>
      <cc:Work
         rdf:about="">
        <dc:format>image/svg+xml</dc:format>
        <dc:type
           rdf:resource="http://purl.org/dc/dcmitype/StillImage" />
        <dc:title></dc:title>
      </cc:Work>
    </rdf:RDF>
  </metadata>
  <defs
     id="defs6390" />
  <path
     id="path1155"
     d="m 767.26562,779.04068 c -42.07413,62.4846 -74.52672,130.00549 -96.4746,200.59375 l 334.85548,87.64847 c 13.0017,-41.5332 32.098,-81.27438 56.7773,-118.09378 z"
     style="opacity:1;fill:#cacaca;fill-opacity:1;fill-rule:nonzero;stroke:#cacaca;stroke-width:1;stroke-miterlimit:4;stroke-dasharray:none;stroke-opacity:1" />
  <path
     id="path1151"
     d="m 913.66211,615.26334 c -54.10834,47.38003 -108.05664,107.9283 -144.15234,160.45312 l 455.94143,262.83404 c 14.8303,-21.5571 32.5602,-41.24145 52.6777,-58.59966 z"
     style="opacity:1;fill:#cacaca;fill-opacity:1;fill-rule:nonzero;stroke:#cacaca;stroke-width:1;stroke-miterlimit:4;stroke-dasharray:none;stroke-opacity:1" />
  <path
     id="path1147"
     d="m 249.06445,873.38248 c -32.04587,104.4565 -48.83647,213.30612 -49.05273,323.74612 h 433.33594 c 0.19816,-73.2293 11.27381,-145.402 32.39453,-214.68167 z"
     style="opacity:1;fill:#cacaca;fill-opacity:1;fill-rule:nonzero;stroke:#cacaca;stroke-width:1;stroke-miterlimit:4;stroke-dasharray:none;stroke-opacity:1" />
  <path
     id="path1143"
     d="m 1500,903.12857 c -25.774,0 -50.8271,2.81752 -74.8379,8.10352 l 24.5508,91.90821 c 16.147,-3.52853 32.9773,-5.41798 50.2871,-5.41798 z"
     style="opacity:1;fill:#cacaca;fill-opacity:1;fill-rule:nonzero;stroke:#cacaca;stroke-width:1;stroke-miterlimit:4;stroke-dasharray:none;stroke-opacity:1" />
  <path
     id="path1141"
     d="m 1421.2578,912.11099 c -24.9055,5.78997 -48.6446,14.26757 -70.8476,25.07031 l 48.4316,83.5176 c 14.7432,-7.1506 30.4838,-12.7755 46.9687,-16.6777 z"
     style="opacity:1;fill:#cacaca;fill-opacity:1;fill-rule:nonzero;stroke:#cacaca;stroke-width:1;stroke-miterlimit:4;stroke-dasharray:none;stroke-opacity:1" />
  <path
     id="path1139"
     d="m 1346.8047,938.93912 c -22.7418,11.40873 -43.8189,25.27819 -62.8125,41.2207 l 69.6601,69.70318 c 12.6117,-10.555 26.5721,-19.7553 41.5997,-27.3789 z"
     style="opacity:1;fill:#cacaca;fill-opacity:1;fill-rule:nonzero;stroke:#cacaca;stroke-width:1;stroke-miterlimit:4;stroke-dasharray:none;stroke-opacity:1" />
  <path
     id="path1137"
     d="m 1065.8945,951.19107 c -24.5074,36.51478 -43.4687,75.92233 -56.3789,117.10553 l 178.4571,46.7109 c 8.2188,-26.0166 20.1485,-50.5665 35.2304,-73.1348 z"
     style="opacity:1;fill:#cacaca;fill-opacity:1;fill-rule:nonzero;stroke:#cacaca;stroke-width:1;stroke-miterlimit:4;stroke-dasharray:none;stroke-opacity:1" />
  <path
     id="path1135"
     d="m 1280.9492,982.77505 c -19.8701,17.11492 -37.385,36.52015 -52.0351,57.77345 l 87.2187,50.2774 c 9.7454,-14.0828 21.3378,-26.9677 34.4551,-38.3711 z"
     style="opacity:1;fill:#cacaca;fill-opacity:1;fill-rule:nonzero;stroke:#cacaca;stroke-width:1;stroke-miterlimit:4;stroke-dasharray:none;stroke-opacity:1" />
  <path
     id="path1133"
     d="m 669.61328,983.4606 c -21.03628,68.9544 -32.06735,140.7866 -32.26562,213.668 h 348.08593 c 0.19586,-42.9778 6.69826,-85.336 19.03521,-126.0195 z"
     style="opacity:1;fill:#cacaca;fill-opacity:1;fill-rule:nonzero;stroke:#cacaca;stroke-width:1;stroke-miterlimit:4;stroke-dasharray:none;stroke-opacity:1" />
  <path
     id="path1131"
     d="m 1226.668,1043.8688 c -14.9045,22.2668 -26.6963,46.488 -34.8223,72.1524 l 99.0176,25.9179 c 5.4343,-16.9743 13.226,-33.0125 23.0215,-47.7929 z"
     style="opacity:1;fill:#cacaca;fill-opacity:1;fill-rule:nonzero;stroke:#cacaca;stroke-width:1;stroke-miterlimit:4;stroke-dasharray:none;stroke-opacity:1" />
  <path
     id="path1129"
     d="m 1008.3379,1072.1227 c -12.2522,40.3583 -18.70828,82.376 -18.90431,125.0059 h 185.58011 c 0.1918,-27.107 4.2901,-53.352 11.7793,-78.2949 z"
     style="opacity:1;fill:#cacaca;fill-opacity:1;fill-rule:nonzero;stroke:#cacaca;stroke-width:1;stroke-miterlimit:4;stroke-dasharray:none;stroke-opacity:1" />
  <path
     id="path999"
     d="m 1190.6621,1119.8474 c -7.4053,24.623 -11.4563,50.53 -11.6484,77.2812 h 102.9414 c 0.1875,-17.7692 2.8644,-34.9831 7.7265,-51.3633 z"
     style="opacity:1;fill:#cacaca;fill-opacity:1;fill-rule:nonzero;stroke:#cacaca;stroke-width:1;stroke-miterlimit:4;stroke-dasharray:none;stroke-opacity:1" />
  <path
     id="path1195"
     d="m 1500.5371,0.50161214 0.4863,398.63281786 c 141.7307,0.15435 279.8503,32.35729 403,92.25586 L 2106.0762,140.98795 A 1298.6462,1198.6462 0 0 0 1500.5371,0.50161214 Z"
     style="opacity:1;fill:#f58025;fill-opacity:1;fill-rule:nonzero;stroke:#f58025;stroke-width:1;stroke-miterlimit:4;stroke-dasharray:none;stroke-opacity:1" />
  <path
     id="path1249"
     d="m 1501.0273,403.13443 0.3926,321.00195 c 40.863,0.10399 81.2117,4.70482 120.2813,13.48438 l 83.4414,-311.63086 c -66.2739,-14.97716 -134.7565,-22.7793 -204.1153,-22.85547 z"
     style="opacity:1;fill:#f58025;fill-opacity:1;fill-rule:nonzero;stroke:#f58025;stroke-width:1;stroke-miterlimit:4;stroke-dasharray:none;stroke-opacity:1" />
  <path
     id="path1185"
     d="m 1709.0469,426.8688 -83.4434,311.64063 c 39.2523,9.12106 77.1806,22.47194 112.9903,39.76953 l 163.4238,-283.41211 c -61.0874,-29.68763 -125.879,-52.52996 -192.9707,-67.99805 z"
     style="opacity:1;fill:#f58025;fill-opacity:1;fill-rule:nonzero;stroke:#f58025;stroke-width:1;stroke-miterlimit:4;stroke-dasharray:none;stroke-opacity:1" />
  <path
     id="path1183"
     d="M 1496.5371,0.66958084 C 1393.708,1.6581721 1291.37,13.916566 1191.6738,37.187159 l 187.0801,700.320321 c 38.5574,-8.62958 78.3595,-13.17691 118.666,-13.36329 z"
     style="opacity:1;fill:#f58025;fill-opacity:1;fill-rule:nonzero;stroke:#f58025;stroke-width:1;stroke-miterlimit:4;stroke-dasharray:none;stroke-opacity:1" />
  <path
     id="path1181"
     d="M 1187.7812,38.116846 C 1084.195,61.671987 984.14821,96.91869 889.90234,143.06021 l 369.05076,636.41016 c 36.6677,-17.94498 75.5829,-31.74906 115.8965,-41.08008 z"
     style="opacity:1;fill:#f58025;fill-opacity:1;fill-rule:nonzero;stroke:#f58025;stroke-width:1;stroke-miterlimit:4;stroke-dasharray:none;stroke-opacity:1" />
  <path
     id="path1235"
     d="M 2598.9238,567.0563 2235.918,776.61099 c 41.4512,61.52222 73.6304,127.91443 95.6894,197.3125 L 2743.4297,863.42545 A 1298.4097,1198.4097 0 0 0 2598.9238,567.0563 Z"
     style="opacity:1;fill:#777777;fill-opacity:1;fill-rule:nonzero;stroke:#777777;stroke-width:1;stroke-miterlimit:4;stroke-dasharray:none;stroke-opacity:1" />
  <path
     id="path1231"
     d="m 2085.793,614.80045 -364.127,364.9746 c 20.1525,17.35856 37.917,37.04725 52.7754,58.61525 L 2230.2012,775.29068 C 2183.0622,711.36822 2139.3629,660.5943 2085.793,614.80045 Z"
     style="opacity:1;fill:#777777;fill-opacity:1;fill-rule:nonzero;stroke:#777777;stroke-width:1;stroke-miterlimit:4;stroke-dasharray:none;stroke-opacity:1" />
  <path
     id="path1229"
     d="m 2232.4473,778.6149 -295.043,170.32031 c 24.2373,36.10906 43.1,75.03339 56.1094,115.70509 l 334.2285,-89.6797 c -21.9674,-69.05577 -54.0118,-135.12185 -95.2949,-196.3457 z"
     style="opacity:1;fill:#777777;fill-opacity:1;fill-rule:nonzero;stroke:#777777;stroke-width:1;stroke-miterlimit:4;stroke-dasharray:none;stroke-opacity:1" />
  <path
     id="path1223"
     d="m 2744.5234,867.2731 -411.7148,110.46875 c 22.0644,70.71425 33.6411,144.49815 33.8437,219.38675 h 431.6465 a 1298.4097,1198.4097 0 0 0 -53.7754,-329.8555 z"
     style="opacity:1;fill:#777777;fill-opacity:1;fill-rule:nonzero;stroke:#777777;stroke-width:1;stroke-miterlimit:4;stroke-dasharray:none;stroke-opacity:1" />
  <path
     id="path1221"
     d="m 1933.9336,950.93716 -157.2461,90.77544 c 14.8345,22.1667 26.6238,46.2485 34.8437,71.7558 l 178.1192,-47.791 c -12.9179,-40.3301 -31.6475,-78.92912 -55.7168,-114.74024 z"
     style="opacity:1;fill:#777777;fill-opacity:1;fill-rule:nonzero;stroke:#777777;stroke-width:1;stroke-miterlimit:4;stroke-dasharray:none;stroke-opacity:1" />
  <path
     id="path1217"
     d="m 2328.9453,978.77896 -334.2305,89.67774 c 12.8644,41.4938 19.6515,84.7589 19.8516,128.6719 h 348.0859 c -0.2027,-74.532 -11.7311,-147.9679 -33.707,-218.34964 z"
     style="opacity:1;fill:#777777;fill-opacity:1;fill-rule:nonzero;stroke:#777777;stroke-width:1;stroke-miterlimit:4;stroke-dasharray:none;stroke-opacity:1" />
  <path
     id="path1215"
     d="m 1718.8477,982.60123 -69.5723,69.73437 c 13.1428,11.4027 24.7536,24.2944 34.5195,38.3828 l 87.1836,-50.3281 c -14.6778,-21.264 -32.2263,-40.67393 -52.1308,-57.78907 z"
     style="opacity:1;fill:#777777;fill-opacity:1;fill-rule:nonzero;stroke:#777777;stroke-width:1;stroke-miterlimit:4;stroke-dasharray:none;stroke-opacity:1" />
  <path
     id="path1213"
     d="m 1773.2266,1043.7106 -87.1856,50.3301 c 9.6547,14.543 17.3613,30.3072 22.7969,46.9824 l 98.8281,-26.5175 c -8.1269,-25.1629 -19.7792,-48.9238 -34.4394,-70.795 z"
     style="opacity:1;fill:#777777;fill-opacity:1;fill-rule:nonzero;stroke:#777777;stroke-width:1;stroke-miterlimit:4;stroke-dasharray:none;stroke-opacity:1" />
  <path
     id="path1211"
     d="m 1990.8535,1069.4938 -178.1015,47.7871 c 7.7877,25.4037 12.0385,52.1797 12.2343,79.8477 h 185.5801 c -0.2003,-43.5564 -6.9373,-86.4736 -19.7129,-127.6348 z"
     style="opacity:1;fill:#777777;fill-opacity:1;fill-rule:nonzero;stroke:#777777;stroke-width:1;stroke-miterlimit:4;stroke-dasharray:none;stroke-opacity:1" />
  <path
     id="path995"
     d="m 1808.8887,1118.3181 -98.8516,26.5234 c 5.0399,16.6553 7.8267,34.1821 8.0176,52.2871 h 102.9316 c -0.1961,-27.3038 -4.3977,-53.7332 -12.0976,-78.8105 z"
     style="opacity:1;fill:#777777;fill-opacity:1;fill-rule:nonzero;stroke:#777777;stroke-width:1;stroke-miterlimit:4;stroke-dasharray:none;stroke-opacity:1" />
  <path
     id="path1281"
     d="M 798.31636,50.329735 A 1298,1198 0 0 0 528.79878,225.20278 L 820.39839,516.93521 C 874.98714,470.4394 935.4009,430.95376 1000,399.12857 Z"
     style="opacity:1;fill:#221e20;fill-opacity:1;fill-rule:nonzero;stroke:#221e20;stroke-width:1;stroke-miterlimit:4;stroke-dasharray:none;stroke-opacity:1" />
  <path
     id="path1205"
     d="m 2108.0215,145.62271 -200.3906,347.51758 c 74.833,36.81391 144.0691,83.88885 205.1367,140.24805 46.2135,42.65044 86.6634,89.63027 120.9043,139.90039 L 2595.1172,564.63248 A 1295.2411,1195.2411 0 0 0 2108.0215,145.62271 Z"
     style="opacity:1;fill:#f2f2f2;fill-opacity:1;fill-rule:nonzero;stroke:#f2f2f2;stroke-width:1;stroke-miterlimit:4;stroke-dasharray:none;stroke-opacity:1" />
  <circle
     r="117.01589"
     cy="1199.1285"
     cx="1500"
     id="conductor"
     style="opacity:1;fill:#221e20;fill-opacity:1;fill-rule:nonzero;stroke:#000000;stroke-width:0.96821362;stroke-opacity:1" />
  <path
     id="lineStage"
     d="M 0,1199.1286 H 3000"
     style="fill:none;fill-rule:evenodd;stroke:#221e20;stroke-width:10;stroke-linecap:butt;stroke-linejoin:miter;stroke-miterlimit:4;stroke-dasharray:none;stroke-opacity:1" />
  <path
     id="path1585"
     d="M 1499.0876,400.8157 C 1201.3703,401.20685 927.50684,546.07316 769.73889,779.08466 L 1065.5026,948.0824 c 93.1922,-137.39911 257.8606,-221.72372 433.5584,-221.95383 v 0 z"
     style="opacity:1;fill:none;fill-opacity:1;fill-rule:nonzero;stroke:#221e20;stroke-width:5;stroke-linejoin:round;stroke-miterlimit:4;stroke-dasharray:none;stroke-opacity:1" />
  <path
     id="path1303"
     d="m 1499.0876,400.8157 -0.027,325.31287 c 175.6584,0.17566 341.9873,84.32882 435.241,221.64946 L 2231.6797,775.70084 C 2073.8386,543 1796.5583,401.20482 1499.0876,400.8157 Z"
     style="opacity:1;fill:none;fill-opacity:1;fill-rule:nonzero;stroke:#221e20;stroke-width:5;stroke-linejoin:round;stroke-miterlimit:4;stroke-dasharray:none;stroke-opacity:1" />
  <path
     id="path1606"
     d="M 2231.7904,775.86687 C 2352.6363,706.77945 2476.4269,639.64965 2596.6889,567.27 2476.5383,389.53948 2305.9248,241.65542 2105.6971,142.96628 l -203.5688,352.0666"
     style="fill:none;fill-rule:evenodd;stroke:#221e20;stroke-width:5;stroke-linecap:butt;stroke-linejoin:round;stroke-miterlimit:4;stroke-dasharray:none;stroke-opacity:1" />
</svg>
