<?xml version="1.0" encoding="UTF-8" standalone="no"?>
<!-- Created with Inkscape (http://www.inkscape.org/) -->

<svg
   xmlns:dc="http://purl.org/dc/elements/1.1/"
   xmlns:cc="http://creativecommons.org/ns#"
   xmlns:rdf="http://www.w3.org/1999/02/22-rdf-syntax-ns#"
   xmlns:svg="http://www.w3.org/2000/svg"
   xmlns="http://www.w3.org/2000/svg"
   xmlns:sodipodi="http://sodipodi.sourceforge.net/DTD/sodipodi-0.dtd"
   xmlns:inkscape="http://www.inkscape.org/namespaces/inkscape"
   version="1.1"
   id="svg6386"
   width="2999.9744"
   height="562.58002"
   viewBox="0 0 2999.9744 562.58002"
   sodipodi:docname="PUO_TEXT.svg"
   inkscape:version="0.92.2 5c3e80d, 2017-08-06"
   inkscape:export-filename="/Users/rbova/iCloud Drive (Archive)/Documents/PUO/media/PUO_LOGO_onWhite2.png"
   inkscape:export-xdpi="96"
   inkscape:export-ydpi="96">
  <metadata
     id="metadata6392">
    <rdf:RDF>
      <cc:Work
         rdf:about="">
        <dc:format>image/svg+xml</dc:format>
        <dc:type
           rdf:resource="http://purl.org/dc/dcmitype/StillImage" />
        <dc:title></dc:title>
      </cc:Work>
    </rdf:RDF>
  </metadata>
  <defs
     id="defs6390" />
  <sodipodi:namedview
     pagecolor="#eceaff"
     bordercolor="#666666"
     borderopacity="1"
     objecttolerance="10"
     gridtolerance="10"
     guidetolerance="10"
     inkscape:pageopacity="0"
     inkscape:pageshadow="2"
     inkscape:window-width="1486"
     inkscape:window-height="852"
     id="namedview6388"
     showgrid="true"
     inkscape:zoom="0.39927963"
     inkscape:cx="1089.3231"
     inkscape:cy="705.86291"
     inkscape:window-x="103"
     inkscape:window-y="0"
     inkscape:window-maximized="0"
     inkscape:current-layer="svg6386"
     fit-margin-top="0"
     fit-margin-left="0"
     fit-margin-right="0"
     fit-margin-bottom="0">
    <inkscape:grid
       type="xygrid"
       id="grid6989"
       spacingx="200"
       spacingy="200"
       originx="3.8146972e-08"
       originy="4.5474735e-13" />
  </sodipodi:namedview>
  <g
     aria-label="PRINCETON UNIVERSITY"
     style="font-style:normal;font-variant:normal;font-weight:100;font-stretch:normal;font-size:293.33334351px;line-height:125%;font-family:Chantilly-Light;-inkscape-font-specification:'Chantilly-Light, Thin';font-variant-ligatures:normal;font-variant-caps:normal;font-variant-numeric:normal;font-feature-settings:normal;text-align:start;letter-spacing:36.70000076px;word-spacing:0px;writing-mode:lr-tb;text-anchor:start;fill:#221e20;fill-opacity:0.94117647;stroke:none;stroke-width:1px;stroke-linecap:butt;stroke-linejoin:miter;stroke-opacity:1"
     id="puTxt"
     sodipodi:insensitive="true"
     transform="translate(3.8146972e-8,-1437.42)">
    <path
       d="M -3.8146972e-8,1439.4 H 46.2 q 21.12,0 34.1,12.1 13.2,12.1 13.2,31.68 0,19.36 -12.98,31.02 -12.76,11.44 -34.32,11.44 H 16.72 v 72.38 H -3.8146972e-8 Z M 16.72,1512.44 H 42.9 q 15.18,0 24.2,-7.92 9.24,-7.92 9.24,-21.56 0,-13.86 -9.24,-21.78 -9.24,-7.92 -25.96,-7.92 H 16.72 Z"
       style="font-style:normal;font-variant:normal;font-weight:100;font-stretch:normal;font-size:220px;font-family:Chantilly-Light;-inkscape-font-specification:'Chantilly-Light, Thin';font-variant-ligatures:normal;font-variant-caps:normal;font-variant-numeric:normal;font-feature-settings:normal;text-align:start;letter-spacing:36.70000076px;writing-mode:lr-tb;text-anchor:start;fill:#221e20;fill-opacity:0.94117647"
       id="path1826"
       inkscape:connector-curvature="0" />
    <path
       d="m 147.98906,1439.4 h 46.64 q 19.14,0 31.68,11.88 12.54,11.88 12.54,30.58 0,14.52 -7.92,24.64 -7.7,10.12 -21.78,13.42 4.4,1.32 5.94,3.08 2.42,1.54 5.94,5.72 l 6.6,9.02 20.24,33.22 16.72,27.06 h -18.92 l -12.76,-21.12 -7.92,-13.2 -6.6,-11 -6.82,-10.34 -8.58,-11 q -5.72,-7.26 -18.26,-7.26 h -20.02 v 73.92 h -16.72 z m 16.72,71.94 h 25.08 q 14.08,0 22.88,-7.92 9.02,-8.14 9.02,-21.12 0,-12.76 -8.8,-20.9 -8.58,-8.36 -22.22,-8.36 h -25.96 z"
       style="font-style:normal;font-variant:normal;font-weight:100;font-stretch:normal;font-size:220px;font-family:Chantilly-Light;-inkscape-font-specification:'Chantilly-Light, Thin';font-variant-ligatures:normal;font-variant-caps:normal;font-variant-numeric:normal;font-feature-settings:normal;text-align:start;letter-spacing:36.70000076px;writing-mode:lr-tb;text-anchor:start;fill:#221e20;fill-opacity:0.94117647"
       id="path1828"
       inkscape:connector-curvature="0" />
    <path
       d="m 309.29843,1439.4 h 16.72 v 158.62 h -16.72 z"
       style="font-style:normal;font-variant:normal;font-weight:100;font-stretch:normal;font-size:220px;font-family:Chantilly-Light;-inkscape-font-specification:'Chantilly-Light, Thin';font-variant-ligatures:normal;font-variant-caps:normal;font-variant-numeric:normal;font-feature-settings:normal;text-align:start;letter-spacing:36.70000076px;writing-mode:lr-tb;text-anchor:start;fill:#221e20;fill-opacity:0.94117647"
       id="path1830"
       inkscape:connector-curvature="0" />
    <path
       d="m 392.83438,1439.4 h 14.74 l 102.74,126.72 q 1.98,2.86 3.08,8.58 v -135.3 h 16.72 v 158.62 h -14.52 l -102.96,-127.16 q -3.08,-3.74 -3.08,-7.48 v 134.64 h -16.72 z"
       style="font-style:normal;font-variant:normal;font-weight:100;font-stretch:normal;font-size:220px;font-family:Chantilly-Light;-inkscape-font-specification:'Chantilly-Light, Thin';font-variant-ligatures:normal;font-variant-caps:normal;font-variant-numeric:normal;font-feature-settings:normal;text-align:start;letter-spacing:36.70000076px;writing-mode:lr-tb;text-anchor:start;fill:#221e20;fill-opacity:0.94117647"
       id="path1832"
       inkscape:connector-curvature="0" />
    <path
       d="m 722.0828,1465.8 q -24.86,-13.42 -47.3,-13.42 -28.6,0 -47.52,19.36 -18.7,19.14 -18.7,48.4 0,29.04 18.04,47.08 18.04,18.04 46.86,18.04 16.94,0 34.1,-6.6 6.6,-2.2 15.4,-7.04 v 15.62 q -13.64,7.04 -25.52,9.9 -11.88,2.86 -25.3,2.86 -35.64,0 -58.3,-21.78 -22.66,-21.78 -22.66,-57.2 0,-35.64 23.1,-59.62 23.1,-23.98 58.3,-23.98 13.64,0 24.64,2.64 11,2.64 24.86,9.68 z"
       style="font-style:normal;font-variant:normal;font-weight:100;font-stretch:normal;font-size:220px;font-family:Chantilly-Light;-inkscape-font-specification:'Chantilly-Light, Thin';font-variant-ligatures:normal;font-variant-caps:normal;font-variant-numeric:normal;font-feature-settings:normal;text-align:start;letter-spacing:36.70000076px;writing-mode:lr-tb;text-anchor:start;fill:#221e20;fill-opacity:0.94117647"
       id="path1834"
       inkscape:connector-curvature="0" />
    <path
       d="m 783.77344,1439.4 h 83.82 v 14.3 h -67.1 v 56.98 h 64.68 v 13.64 h -64.68 v 59.4 h 69.3 v 14.3 h -86.02 z"
       style="font-style:normal;font-variant:normal;font-weight:100;font-stretch:normal;font-size:220px;font-family:Chantilly-Light;-inkscape-font-specification:'Chantilly-Light, Thin';font-variant-ligatures:normal;font-variant-caps:normal;font-variant-numeric:normal;font-feature-settings:normal;text-align:start;letter-spacing:36.70000076px;writing-mode:lr-tb;text-anchor:start;fill:#221e20;fill-opacity:0.94117647"
       id="path1836"
       inkscape:connector-curvature="0" />
    <path
       d="m 908.9547,1439.4 h 123.2 v 14.08 h -53.02 v 144.54 h -16.5 v -144.54 h -53.68 z"
       style="font-style:normal;font-variant:normal;font-weight:100;font-stretch:normal;font-size:220px;font-family:Chantilly-Light;-inkscape-font-specification:'Chantilly-Light, Thin';font-variant-ligatures:normal;font-variant-caps:normal;font-variant-numeric:normal;font-feature-settings:normal;text-align:start;letter-spacing:36.70000076px;writing-mode:lr-tb;text-anchor:start;fill:#221e20;fill-opacity:0.94117647"
       id="path1838"
       inkscape:connector-curvature="0" />
    <path
       d="m 1130.8827,1437.64 q 34.76,0 56.76,22.88 22.22,22.66 22.22,58.3 0,35.64 -22.22,58.52 -22,22.66 -56.76,22.66 -34.76,0 -56.76,-22.66 -11,-11.44 -16.5,-25.74 -5.5,-14.52 -5.5,-32.78 0,-35.64 22,-58.3 22.22,-22.88 56.76,-22.88 z m -61.82,81.18 q 0,29.48 17.16,48.4 17.16,18.7 44.66,18.7 27.72,0 44.88,-18.48 17.16,-18.7 17.16,-48.62 0,-29.48 -17.38,-48.4 -17.16,-18.92 -44.66,-18.92 -27.28,0 -44.66,18.7 -17.16,18.48 -17.16,48.62 z"
       style="font-style:normal;font-variant:normal;font-weight:100;font-stretch:normal;font-size:220px;font-family:Chantilly-Light;-inkscape-font-specification:'Chantilly-Light, Thin';font-variant-ligatures:normal;font-variant-caps:normal;font-variant-numeric:normal;font-feature-settings:normal;text-align:start;letter-spacing:36.70000076px;writing-mode:lr-tb;text-anchor:start;fill:#221e20;fill-opacity:0.94117647"
       id="path1840"
       inkscape:connector-curvature="0" />
    <path
       d="m 1271.139,1439.4 h 14.74 l 102.74,126.72 q 1.98,2.86 3.08,8.58 v -135.3 h 16.72 v 158.62 h -14.52 l -102.96,-127.16 q -3.08,-3.74 -3.08,-7.48 v 134.64 h -16.72 z"
       style="font-style:normal;font-variant:normal;font-weight:100;font-stretch:normal;font-size:220px;font-family:Chantilly-Light;-inkscape-font-specification:'Chantilly-Light, Thin';font-variant-ligatures:normal;font-variant-caps:normal;font-variant-numeric:normal;font-feature-settings:normal;text-align:start;letter-spacing:36.70000076px;writing-mode:lr-tb;text-anchor:start;fill:#221e20;fill-opacity:0.94117647"
       id="path1842"
       inkscape:connector-curvature="0" />
    <path
       d="m 1703.1012,1536.42 q 0,17.6 -4.62,29.48 -6.6,14.74 -23.1,24.42 -16.5,9.68 -36.08,9.68 -19.58,0 -35.64,-9.24 -15.84,-9.24 -22.44,-22.22 -5.94,-12.98 -5.94,-32.12 v -97.02 h 16.72 v 96.36 q 0,14.3 4.18,24.42 4.18,10.12 16.28,17.82 12.32,7.48 26.84,7.48 14.3,0 25.96,-7.26 11.88,-7.26 16.5,-17.6 4.62,-10.34 4.62,-24.86 v -96.36 h 16.72 z"
       style="font-style:normal;font-variant:normal;font-weight:100;font-stretch:normal;font-size:220px;font-family:Chantilly-Light;-inkscape-font-specification:'Chantilly-Light, Thin';font-variant-ligatures:normal;font-variant-caps:normal;font-variant-numeric:normal;font-feature-settings:normal;text-align:start;letter-spacing:36.70000076px;writing-mode:lr-tb;text-anchor:start;fill:#221e20;fill-opacity:0.94117647"
       id="path1844"
       inkscape:connector-curvature="0" />
    <path
       d="m 1769.6765,1439.4 h 14.74 l 102.74,126.72 q 1.98,2.86 3.08,8.58 v -135.3 h 16.72 v 158.62 h -14.52 l -102.96,-127.16 q -3.08,-3.74 -3.08,-7.48 v 134.64 h -16.72 z"
       style="font-style:normal;font-variant:normal;font-weight:100;font-stretch:normal;font-size:220px;font-family:Chantilly-Light;-inkscape-font-specification:'Chantilly-Light, Thin';font-variant-ligatures:normal;font-variant-caps:normal;font-variant-numeric:normal;font-feature-settings:normal;text-align:start;letter-spacing:36.70000076px;writing-mode:lr-tb;text-anchor:start;fill:#221e20;fill-opacity:0.94117647"
       id="path1846"
       inkscape:connector-curvature="0" />
    <path
       d="m 1973.525,1439.4 h 16.72 v 158.62 h -16.72 z"
       style="font-style:normal;font-variant:normal;font-weight:100;font-stretch:normal;font-size:220px;font-family:Chantilly-Light;-inkscape-font-specification:'Chantilly-Light, Thin';font-variant-ligatures:normal;font-variant-caps:normal;font-variant-numeric:normal;font-feature-settings:normal;text-align:start;letter-spacing:36.70000076px;writing-mode:lr-tb;text-anchor:start;fill:#221e20;fill-opacity:0.94117647"
       id="path1848"
       inkscape:connector-curvature="0" />
    <path
       d="m 2053.761,1439.4 47.3,124.08 q 2.2,5.5 2.2,10.12 l 0.22,-4.18 2.2,-6.16 46.86,-123.86 h 17.82 l -62.48,158.62 h -9.46 l -62.7,-158.62 z"
       style="font-style:normal;font-variant:normal;font-weight:100;font-stretch:normal;font-size:220px;font-family:Chantilly-Light;-inkscape-font-specification:'Chantilly-Light, Thin';font-variant-ligatures:normal;font-variant-caps:normal;font-variant-numeric:normal;font-feature-settings:normal;text-align:start;letter-spacing:36.70000076px;writing-mode:lr-tb;text-anchor:start;fill:#221e20;fill-opacity:0.94117647"
       id="path1850"
       inkscape:connector-curvature="0" />
    <path
       d="m 2215.7922,1439.4 h 83.82 v 14.3 h -67.1 v 56.98 h 64.68 v 13.64 h -64.68 v 59.4 h 69.3 v 14.3 h -86.02 z"
       style="font-style:normal;font-variant:normal;font-weight:100;font-stretch:normal;font-size:220px;font-family:Chantilly-Light;-inkscape-font-specification:'Chantilly-Light, Thin';font-variant-ligatures:normal;font-variant-caps:normal;font-variant-numeric:normal;font-feature-settings:normal;text-align:start;letter-spacing:36.70000076px;writing-mode:lr-tb;text-anchor:start;fill:#221e20;fill-opacity:0.94117647"
       id="path1852"
       inkscape:connector-curvature="0" />
    <path
       d="m 2360.7734,1439.4 h 46.64 q 19.14,0 31.68,11.88 12.54,11.88 12.54,30.58 0,14.52 -7.92,24.64 -7.7,10.12 -21.78,13.42 4.4,1.32 5.94,3.08 2.42,1.54 5.94,5.72 l 6.6,9.02 20.24,33.22 16.72,27.06 h -18.92 l -12.76,-21.12 -7.92,-13.2 -6.6,-11 -6.82,-10.34 -8.58,-11 q -5.72,-7.26 -18.26,-7.26 h -20.02 v 73.92 h -16.72 z m 16.72,71.94 h 25.08 q 14.08,0 22.88,-7.92 9.02,-8.14 9.02,-21.12 0,-12.76 -8.8,-20.9 -8.58,-8.36 -22.22,-8.36 h -25.96 z"
       style="font-style:normal;font-variant:normal;font-weight:100;font-stretch:normal;font-size:220px;font-family:Chantilly-Light;-inkscape-font-specification:'Chantilly-Light, Thin';font-variant-ligatures:normal;font-variant-caps:normal;font-variant-numeric:normal;font-feature-settings:normal;text-align:start;letter-spacing:36.70000076px;writing-mode:lr-tb;text-anchor:start;fill:#221e20;fill-opacity:0.94117647"
       id="path1854"
       inkscape:connector-curvature="0" />
    <path
       d="m 2511.8717,1571.4 8.8,6.16 8.14,3.96 10.34,3.08 q 5.72,1.32 10.34,1.32 12.98,0 21.34,-7.92 8.36,-7.92 8.36,-20.9 0,-14.08 -6.82,-19.36 -6.82,-5.5 -9.46,-6.82 l -6.38,-3.52 -17.6,-9.24 q -27.06,-13.86 -27.06,-37.62 0,-17.82 12.98,-30.36 12.98,-12.76 32.12,-12.76 2.42,0 5.06,0.22 2.86,0.22 5.72,0.88 l 10.56,2.64 q 5.06,1.32 8.58,3.52 l 6.16,3.3 v 16.94 l -7.26,-5.28 q -12.98,-7.92 -27.72,-7.92 -12.32,0 -20.9,8.14 -8.36,8.14 -8.36,20.24 0,8.36 4.62,14.52 4.62,6.16 15.4,12.1 l 16.5,8.58 q 17.38,8.8 23.98,17.6 6.82,8.58 6.82,22.44 0,19.8 -12.76,32.34 -6.38,6.16 -14.3,9.24 -7.92,3.08 -18.26,3.08 -2.64,0 -5.72,-0.22 -3.08,-0.22 -7.48,-1.1 -4.4,-0.66 -5.94,-1.1 -3.3,-1.1 -4.62,-1.54 -5.5,-1.98 -15.18,-7.26 z"
       style="font-style:normal;font-variant:normal;font-weight:100;font-stretch:normal;font-size:220px;font-family:Chantilly-Light;-inkscape-font-specification:'Chantilly-Light, Thin';font-variant-ligatures:normal;font-variant-caps:normal;font-variant-numeric:normal;font-feature-settings:normal;text-align:start;letter-spacing:36.70000076px;writing-mode:lr-tb;text-anchor:start;fill:#221e20;fill-opacity:0.94117647"
       id="path1856"
       inkscape:connector-curvature="0" />
    <path
       d="m 2658.4702,1439.4 h 16.72 v 158.62 h -16.72 z"
       style="font-style:normal;font-variant:normal;font-weight:100;font-stretch:normal;font-size:220px;font-family:Chantilly-Light;-inkscape-font-specification:'Chantilly-Light, Thin';font-variant-ligatures:normal;font-variant-caps:normal;font-variant-numeric:normal;font-feature-settings:normal;text-align:start;letter-spacing:36.70000076px;writing-mode:lr-tb;text-anchor:start;fill:#221e20;fill-opacity:0.94117647"
       id="path1858"
       inkscape:connector-curvature="0" />
    <path
       d="m 2722.2063,1439.4 h 123.2 v 14.08 h -53.02 v 144.54 h -16.5 v -144.54 h -53.68 z"
       style="font-style:normal;font-variant:normal;font-weight:100;font-stretch:normal;font-size:220px;font-family:Chantilly-Light;-inkscape-font-specification:'Chantilly-Light, Thin';font-variant-ligatures:normal;font-variant-caps:normal;font-variant-numeric:normal;font-feature-settings:normal;text-align:start;letter-spacing:36.70000076px;writing-mode:lr-tb;text-anchor:start;fill:#221e20;fill-opacity:0.94117647"
       id="path1860"
       inkscape:connector-curvature="0" />
    <path
       d="m 2888.476,1439.4 42.02,56.1 q 2.42,3.52 2.42,9.68 0.88,-7.48 2.86,-9.68 l 43.56,-56.1 h 20.24 l -58.52,74.36 v 84.26 h -16.94 v -84.26 l -56.32,-74.36 z"
       style="font-style:normal;font-variant:normal;font-weight:100;font-stretch:normal;font-size:220px;font-family:Chantilly-Light;-inkscape-font-specification:'Chantilly-Light, Thin';font-variant-ligatures:normal;font-variant-caps:normal;font-variant-numeric:normal;font-feature-settings:normal;text-align:start;letter-spacing:36.70000076px;writing-mode:lr-tb;text-anchor:start;fill:#221e20;fill-opacity:0.94117647"
       id="path1862"
       inkscape:connector-curvature="0" />
  </g>
  <g
     aria-label="O R C H E S T R A"
     style="font-style:normal;font-variant:normal;font-weight:100;font-stretch:normal;font-size:330.66665649px;line-height:125%;font-family:Chantilly-Medium;-inkscape-font-specification:'Chantilly-Medium, Thin';font-variant-ligatures:normal;font-variant-caps:normal;font-variant-numeric:normal;font-feature-settings:normal;text-align:start;letter-spacing:22.26000023px;word-spacing:0px;writing-mode:lr-tb;text-anchor:start;fill:#f58025;fill-opacity:1;stroke:none;stroke-width:1px;stroke-linecap:butt;stroke-linejoin:miter;stroke-opacity:1"
     id="orchestraText"
     sodipodi:insensitive="true"
     transform="translate(3.8146972e-8,-1437.42)">
    <path
       d="m 121.35466,1754.3147 q 53.23733,0 87.296,34.72 34.05867,34.3893 34.05867,88.288 0,53.8986 -34.05867,88.288 Q 174.92266,2000 121.35466,2000 68.117332,2000 34.058666,1965.6107 3.0517578e-7,1930.8907 3.0517578e-7,1877.3227 q 0,-53.8987 33.72799869482422,-88.288 34.058666,-34.72 87.626661,-34.72 z m -76.053328,123.008 q 0,37.0346 20.832,61.1733 21.162666,23.808 55.221328,23.808 33.39734,0 54.56,-23.4773 21.16267,-23.808 21.16267,-61.504 0,-38.0267 -21.16267,-61.504 -20.832,-23.808 -54.56,-23.808 -33.727996,0 -54.890662,23.808 -21.162666,23.4773 -21.162666,61.504 z"
       style="letter-spacing:22.26000023px;fill:#f58025;fill-opacity:1"
       id="path1807"
       inkscape:connector-curvature="0" />
    <path
       d="m 413.13065,1757.952 h 85.97333 q 31.41333,0 51.91466,18.848 20.832,18.5173 20.832,48.2773 0,42.9867 -40.01066,56.8747 l 9.58933,5.6213 q 2.976,2.3147 8.26666,8.928 l 5.29067,7.936 3.63733,6.2827 27.11467,50.2613 19.50933,35.3814 h -49.26933 l -13.55733,-26.1227 -15.21067,-28.1067 q -13.22666,-23.4773 -23.14666,-36.0426 -9.58934,-12.896 -27.44534,-12.896 h -17.856 v 103.168 h -45.63199 z m 45.30133,103.4987 h 28.10666 q 18.51734,0 28.768,-8.928 10.58134,-9.2587 10.58134,-25.4614 0,-16.5333 -11.24267,-26.1226 -10.912,-9.92 -29.76,-9.92 h -26.45333 z"
       style="letter-spacing:22.26000023px;fill:#f58025;fill-opacity:1"
       id="path1809"
       inkscape:connector-curvature="0" />
    <path
       d="m 946.25193,1811.1893 q -18.18666,-9.5893 -34.72,-13.888 -16.53333,-4.6293 -33.39733,-4.6293 -37.696,0 -61.83466,24.1387 -24.13867,24.1386 -24.13867,61.8346 0,37.0347 23.808,60.512 24.13866,23.1467 62.16533,23.1467 19.17867,0 36.04267,-4.96 16.864,-4.96 36.37333,-17.1947 v 40.3414 q -20.50133,10.5813 -39.34933,15.2106 -18.51734,4.2987 -39.68,4.2987 -56.21333,0 -91.264,-33.0667 -35.05067,-33.0666 -35.05067,-86.304 0,-54.56 35.712,-90.272 36.04267,-36.0426 92.256,-36.0426 19.50933,0 35.38133,3.968 16.20267,3.968 37.696,13.888 z"
       style="letter-spacing:22.26000023px;fill:#f58025;fill-opacity:1"
       id="path1811"
       inkscape:connector-curvature="0" />
    <path
       d="m 1121.5248,1757.952 h 45.632 v 100.192 h 123.3387 v -100.192 h 45.3013 v 238.4107 h -44.9707 V 1891.872 h -124 v 104.4907 h -45.3013 z"
       style="letter-spacing:22.26000023px;fill:#f58025;fill-opacity:1"
       id="path1813"
       inkscape:connector-curvature="0" />
    <path
       d="m 1513.5031,1757.952 h 141.5253 v 34.72 h -95.8933 v 65.1413 h 89.28 v 33.728 h -89.6107 v 70.1014 h 99.2 v 34.72 h -144.5013 z"
       style="letter-spacing:22.26000023px;fill:#f58025;fill-opacity:1"
       id="path1815"
       inkscape:connector-curvature="0" />
    <path
       d="m 1819.1,1943.456 11.904,8.2667 12.5653,5.952 q 18.848,7.2746 32.736,7.2746 16.2027,0 26.4533,-8.928 10.5814,-9.2586 10.5814,-23.808 0,-10.912 -5.952,-18.848 -5.952,-7.936 -22.1547,-16.5333 l -22.1547,-11.2427 Q 1819.1,1862.112 1819.1,1823.424 q 0,-29.4293 21.1626,-49.2693 21.4934,-19.84 54.56,-19.84 16.5334,0 28.1067,3.6373 11.904,3.3067 17.856,5.952 l 12.2347,5.952 v 41.0027 l -10.912,-7.936 q -4.2987,-2.976 -9.2587,-4.96 -4.6293,-2.3147 -11.5733,-4.6294 -11.904,-3.6373 -21.1627,-3.6373 -14.88,0 -25.4613,9.5893 -10.2507,9.5894 -10.2507,24.1387 0,11.2427 6.2827,18.848 6.2826,7.6053 22.816,16.2027 l 19.1786,9.92 q 25.1307,12.896 36.0427,27.1146 10.912,13.888 10.912,34.72 0,30.4214 -22.1547,50.2614 -21.824,19.5093 -56.544,19.5093 -19.5093,0 -31.744,-3.6373 l -16.2026,-4.6294 -13.888,-5.952 z"
       style="letter-spacing:22.26000023px;fill:#f58025;fill-opacity:1"
       id="path1817"
       inkscape:connector-curvature="0" />
    <path
       d="m 2104.0662,1757.952 h 187.8187 v 34.3893 h -71.0934 v 204.0214 h -44.9706 v -204.0214 h -71.7547 z"
       style="letter-spacing:22.26000023px;fill:#f58025;fill-opacity:1"
       id="path1819"
       inkscape:connector-curvature="0" />
    <path
       d="m 2443.3756,1757.952 h 85.9734 q 31.4133,0 51.9146,18.848 20.832,18.5173 20.832,48.2773 0,42.9867 -40.0106,56.8747 l 9.5893,5.6213 q 2.976,2.3147 8.2667,8.928 l 5.2906,7.936 3.6374,6.2827 27.1146,50.2613 19.5094,35.3814 h -49.2694 l -13.5573,-26.1227 -15.2107,-28.1067 q -13.2266,-23.4773 -23.1466,-36.0426 -9.5894,-12.896 -27.4454,-12.896 h -17.856 v 103.168 h -45.632 z m 45.3014,103.4987 h 28.1066 q 18.5174,0 28.768,-8.928 10.5814,-9.2587 10.5814,-25.4614 0,-16.5333 -11.2427,-26.1226 -10.912,-9.92 -29.76,-9.92 h -26.4533 z"
       style="letter-spacing:22.26000023px;fill:#f58025;fill-opacity:1"
       id="path1821"
       inkscape:connector-curvature="0" />
    <path
       d="m 2852.8277,1757.952 h 46.624 l 100.5226,238.4107 h -49.9306 l -21.4934,-57.8667 h -102.5066 l -20.832,57.8667 h -48.9387 z m -14.2187,148.8 h 76.7147 l -34.3894,-85.9733 q -4.2986,-10.912 -4.2986,-23.4774 v 1.3227 l -0.992,11.904 -2.6454,10.2507 z"
       style="letter-spacing:22.26000023px;fill:#f58025;fill-opacity:1"
       id="path1823"
       inkscape:connector-curvature="0" />
  </g>
</svg>
